<?xml version="1.0" encoding="UTF-8"?>
<!--
  orbit-core
  Creator: Rodrigo Menchio <rodrigomenchio@gmail.com>
  SPDX-License-Identifier: Apache-2.0
-->
<svg width="512" height="512" viewBox="0 0 512 512" fill="none" xmlns="http://www.w3.org/2000/svg">
  <defs>
    <radialGradient id="bg" cx="0" cy="0" r="1" gradientUnits="userSpaceOnUse" gradientTransform="translate(170 150) rotate(55) scale(520 520)">
      <stop offset="0" stop-color="#0C1533"/>
      <stop offset="0.55" stop-color="#060A17"/>
      <stop offset="1" stop-color="#040713"/>
    </radialGradient>
    <linearGradient id="g" x1="120" y1="90" x2="420" y2="420" gradientUnits="userSpaceOnUse">
      <stop stop-color="#55F3FF"/>
      <stop offset="0.55" stop-color="#9B7CFF"/>
      <stop offset="1" stop-color="#FF5DD6"/>
    </linearGradient>
    <filter id="glow" x="-20%" y="-20%" width="140%" height="140%" color-interpolation-filters="sRGB">
      <feGaussianBlur stdDeviation="6" result="b"/>
      <feColorMatrix in="b" type="matrix" values="1 0 0 0 0  0 1 0 0 0  0 0 1 0 0  0 0 0 0.55 0" result="g"/>
      <feMerge>
        <feMergeNode in="g"/>
        <feMergeNode in="SourceGraphic"/>
      </feMerge>
    </filter>
  </defs>

  <!-- deep space background -->
  <rect x="0" y="0" width="512" height="512" rx="112" fill="url(#bg)"/>

  <!-- stars -->
  <g opacity="0.65">
    <circle cx="120" cy="128" r="2" fill="#E9EEFF"/>
    <circle cx="420" cy="156" r="1.6" fill="#E9EEFF"/>
    <circle cx="360" cy="390" r="1.8" fill="#E9EEFF"/>
    <circle cx="170" cy="410" r="1.4" fill="#E9EEFF"/>
    <circle cx="274" cy="104" r="1.2" fill="#E9EEFF"/>
  </g>

  <!-- orbit ring -->
  <g filter="url(#glow)">
    <path d="M256 110C176 110 116 176 116 256C116 336 176 402 256 402C336 402 396 336 396 256" stroke="url(#g)" stroke-width="18" stroke-linecap="round"/>
    <path d="M396 256C396 176 336 110 256 110" stroke="#FFFFFF" stroke-opacity="0.14" stroke-width="18" stroke-linecap="round"/>
  </g>

  <!-- core -->
  <g filter="url(#glow)">
    <circle cx="256" cy="256" r="46" fill="#0B1220" stroke="rgba(255,255,255,0.14)" stroke-width="2"/>
    <circle cx="256" cy="256" r="10" fill="url(#g)"/>
  </g>

  <!-- trajectory tick -->
  <g opacity="0.85">
    <path d="M380 208L422 186" stroke="url(#g)" stroke-width="10" stroke-linecap="round"/>
  </g>
</svg>
